<svg id="Layer_1" data-name="Layer 1" xmlns="http://www.w3.org/2000/svg" viewBox="0 0 353.51 61.69"><defs><style>.cls-1{fill:#12120d;}.cls-2{fill:#fff;}.cls-3{fill-rule:evenodd;}.cls-4{fill:none;}</style></defs><rect class="cls-1" x="314.53" y="38.54" width="38.99" height="3.7"/><rect class="cls-1" x="52.42" y="37.76" width="301.09" height="0.78"/><path class="cls-1" d="M291.16,30.61h1.39V23c0-1.9,1.08-3.51,2.79-3.51,2.28,0,2.28,2,2.28,2.86v8.27H299V22.39c0-.82,0-4.21-3.39-4.21a3.39,3.39,0,0,0-3.13,2h-.05c0-.89,0-1.25-.09-1.81h-1.3c0,1.28.1,2.53.1,3.8Zm-4.93-15h1.68V13.47h-1.68Zm.14,15h1.4V18.35h-1.4Zm-4.9,0h1.39v-18h-1.39Zm-6.81,0h1.4V22.9c0-2.26,1-3.22,3.22-3.22v-1.5A3.23,3.23,0,0,0,276,20.3H276c0-.5-.07-1.23-.09-1.95h-1.3c0,1.28.09,2.53.09,3.8Zm-9.4-7c0-1.59.89-4.16,2.79-4.16,1.13,0,2.5.92,2.5,4.16Zm6.78,1.3c0-3-.36-6.76-3.92-6.76-2.06,0-4.35,1.69-4.35,6.3,0,1.23,0,6.3,4.81,6.3a5.53,5.53,0,0,0,2.86-.69l-.07-1.62a4.41,4.41,0,0,1-2.65,1c-.55,0-3.46,0-3.46-4.54Zm-19.35,5.67h2.88c1.21,0,5.7,0,5.7-4.68a3.94,3.94,0,0,0-3-4.09v-.05a3.91,3.91,0,0,0,2.64-3.89,4,4,0,0,0-4.3-4.07h-3.92Zm1.49-8h2.28A3.09,3.09,0,0,1,259.68,26a3.08,3.08,0,0,1-3.39,3.22h-2.11Zm0-7.38h2.09c2.19,0,3.05,1.27,3.05,2.86a2.93,2.93,0,0,1-3.1,3.12h-2Zm-17.53,8.41c0-1.59.89-4.16,2.79-4.16,1.13,0,2.5.92,2.5,4.16Zm6.78,1.3c0-3-.36-6.76-3.92-6.76-2.06,0-4.35,1.69-4.35,6.3,0,1.23,0,6.3,4.81,6.3a5.53,5.53,0,0,0,2.86-.69l-.07-1.62a4.41,4.41,0,0,1-2.65,1c-.55,0-3.46,0-3.46-4.54Zm-13.68-9v2.45h-1.83v1.3h1.83V28c0,1.37.48,2.76,2.29,2.76a5.72,5.72,0,0,0,1.61-.17V29.22a2.28,2.28,0,0,1-1.16.26c-1.18,0-1.34-.86-1.34-1.85v-8h2.5v-1.3h-2.5V15.47Zm-3.82,2.64a8.89,8.89,0,0,0-2.26-.36,3.44,3.44,0,0,0-3.61,3.39c0,1.74.82,2.38,2.89,3.42,1.44.72,2.19,1.2,2.19,2.38a2.19,2.19,0,0,1-2.26,2.11,5.79,5.79,0,0,1-2.79-.84l-.2,1.57a8.2,8.2,0,0,0,3.11.57,3.41,3.41,0,0,0,3.63-3.56c0-2-1.3-2.59-3-3.51s-2.1-1.15-2.1-2.28a2,2,0,0,1,2.1-1.95,5.49,5.49,0,0,1,2.09.51Zm-16.4,12.07h1.4V23c0-1.9,1.08-3.51,2.79-3.51,2.28,0,2.28,2,2.28,2.86v8.27h1.39V22.39c0-.82,0-4.21-3.39-4.21a3.38,3.38,0,0,0-3.12,2h0c0-.89-.05-1.25-.1-1.81h-1.29c0,1.28.09,2.53.09,3.8Zm-3.27-12.26h-1.39V26c0,1.9-1.08,3.51-2.79,3.51-2.28,0-2.28-2-2.28-2.86V18.35h-1.4v8.56c0,1.95.72,3.87,3.39,3.87a3.22,3.22,0,0,0,3.13-2H205c0,.89,0,1.25.09,1.8h1.3c0-1.27-.1-2.52-.1-3.79Zm-2.81-2.5h1.4V13.5h-1.4Zm-3.61,0h1.4V13.5h-1.4ZM186.67,30.61h1.49V22.39h.05l6.46,8.22h2l-7.26-8.8,6.7-8h-1.82l-6.06,7.36h-.05V13.83h-1.49Zm-13.32,0h1.39V22.9c0-2.26,1-3.22,3.23-3.22v-1.5a3.23,3.23,0,0,0-3.27,2.12h0c0-.5-.07-1.23-.1-1.95h-1.3c0,1.28.1,2.53.1,3.8Zm-9.4-7c0-1.59.89-4.16,2.79-4.16,1.13,0,2.5.92,2.5,4.16Zm6.78,1.3c0-3-.36-6.76-3.92-6.76-2.07,0-4.35,1.69-4.35,6.3,0,1.23,0,6.3,4.81,6.3a5.56,5.56,0,0,0,2.86-.69l-.07-1.62a4.43,4.43,0,0,1-2.65,1c-.55,0-3.46,0-3.46-4.54Zm-17.91-.46c0-2.83.72-5,2.81-5,3,0,3,3.51,3,5.15,0,2.5-.65,4.85-3,4.85-2.79,0-2.79-4-2.79-5m7.11-11.9h-1.39v7.36h0a3.19,3.19,0,0,0-3.1-1.76c-3.08,0-4.06,3.51-4.06,5.85,0,1.7.14,6.75,4.13,6.75a3.73,3.73,0,0,0,3.22-1.85h0v1.68H160c-.05-1.05-.1-2.14-.1-4.06ZM139.57,15.9v2.45h-1.83v1.3h1.83V28c0,1.37.48,2.76,2.28,2.76a5.75,5.75,0,0,0,1.62-.17V29.22a2.28,2.28,0,0,1-1.16.26c-1.18,0-1.35-.86-1.35-1.85v-8h2.51v-1.3H141V15.47Zm-5.14,10c0,3.34-2.41,3.6-3.06,3.6a2.23,2.23,0,0,1-2.26-2.26c0-2.78,2.43-2.78,5.32-2.78Zm1.29-3.63c0-.89,0-4.07-3.77-4.07a6.48,6.48,0,0,0-3.37,1.09l.22,1.49a5.07,5.07,0,0,1,3.08-1.28c2.55,0,2.55,2.21,2.55,3.75h-.89c-1.76,0-5.92.08-5.92,4A3.46,3.46,0,0,0,131,30.78a3.63,3.63,0,0,0,3.43-1.92h.05l.1,1.75h1.25c-.07-.91-.15-1.82-.15-2.74Zm-2.64-6.4h1.39V13.5h-1.39Zm-3.61,0h1.4V13.5h-1.4Zm-7.26.05v2.45h-1.82v1.3h1.82V28c0,1.37.48,2.76,2.29,2.76a5.67,5.67,0,0,0,1.61-.17V29.22a2.28,2.28,0,0,1-1.16.26c-1.18,0-1.34-.86-1.34-1.85v-8h2.5v-1.3h-2.5V15.47Zm-5.55-.26h1.68V13.47h-1.68Zm.14,15h1.4V18.35h-1.4Zm-3.32-12.07a8.8,8.8,0,0,0-2.25-.36,3.44,3.44,0,0,0-3.61,3.39c0,1.74.82,2.38,2.88,3.42,1.45.72,2.19,1.2,2.19,2.38a2.19,2.19,0,0,1-2.26,2.11,5.79,5.79,0,0,1-2.79-.84l-.19,1.57a8.14,8.14,0,0,0,3.1.57,3.41,3.41,0,0,0,3.63-3.56c0-2-1.3-2.59-3-3.51s-2.09-1.15-2.09-2.28a2,2,0,0,1,2.09-1.95,5.45,5.45,0,0,1,2.09.51ZM101.54,30.61h1.39V22.9c0-2.26,1-3.22,3.22-3.22v-1.5a3.23,3.23,0,0,0-3.27,2.12h0c0-.5-.07-1.23-.09-1.95h-1.3c0,1.28.1,2.53.1,3.8Zm-9.4-7c0-1.59.89-4.16,2.79-4.16,1.12,0,2.49.92,2.49,4.16Zm6.78,1.3c0-3-.36-6.76-3.92-6.76-2.07,0-4.35,1.69-4.35,6.3,0,1.23,0,6.3,4.8,6.3a5.5,5.5,0,0,0,2.86-.69l-.07-1.62a4.4,4.4,0,0,1-2.64,1c-.55,0-3.46,0-3.46-4.54ZM84.13,30.61h1.68l3.58-12.26H88L85,29h0L82,18.35H80.55ZM77,15.64h1.68V13.47H77Zm.14,15h1.4V18.35h-1.4Zm-11.25,0h1.4V23c0-1.9,1.08-3.51,2.79-3.51,2.28,0,2.28,2,2.28,2.86v8.27h1.39V22.39c0-.82,0-4.21-3.39-4.21a3.38,3.38,0,0,0-3.12,2h0c0-.89-.05-1.25-.1-1.81H65.79c0,1.28.09,2.53.09,3.8ZM52.37,24.44c0,3.6,1.08,6.34,5,6.34s5-3,5-6.34V13.83H60.83V24.41c0,2.26-.33,5-3.48,5s-3.49-2.45-3.49-5V13.83H52.37Z"/><rect class="cls-2" width="38.54" height="38.54"/><path class="cls-3" d="M9.65,12.27A2.32,2.32,0,1,0,7.34,10a2.31,2.31,0,0,0,2.31,2.31M7.34,28.58A2.32,2.32,0,1,1,9.65,30.9a2.31,2.31,0,0,1-2.31-2.32M3.91,18a2.32,2.32,0,1,0-2.32-2.31A2.3,2.3,0,0,0,3.91,18M1.59,10a2.32,2.32,0,1,1,2.32,2.31A2.32,2.32,0,0,1,1.59,10M15.4,18a2.32,2.32,0,1,0-2.31-2.31A2.31,2.31,0,0,0,15.4,18m-2.31-8a2.32,2.32,0,1,1,2.31,2.31A2.31,2.31,0,0,1,13.09,10m21.55,8a2.32,2.32,0,1,0-2.32-2.31A2.3,2.3,0,0,0,34.64,18m-2.32-8a2.32,2.32,0,1,1,2.32,2.31A2.32,2.32,0,0,1,32.32,10m2.32-3.4a2.32,2.32,0,1,0-2.32-2.32,2.31,2.31,0,0,0,2.32,2.32m-8.07,9.12A2.32,2.32,0,1,1,28.88,18a2.32,2.32,0,0,1-2.31-2.31m2.31-3.41A2.32,2.32,0,1,0,26.57,10a2.31,2.31,0,0,0,2.31,2.31m-8,3.41A2.32,2.32,0,1,1,23.14,18a2.31,2.31,0,0,1-2.31-2.31m2.31-3.41A2.32,2.32,0,1,0,20.83,10a2.31,2.31,0,0,0,2.31,2.31m-21.55-8A2.32,2.32,0,1,1,3.91,6.56,2.32,2.32,0,0,1,1.59,4.24M23.14,36.62a2.32,2.32,0,1,0-2.31-2.32,2.32,2.32,0,0,0,2.31,2.32m9.18-2.32a2.32,2.32,0,1,1,2.32,2.32,2.32,2.32,0,0,1-2.32-2.32m2.32-3.4a2.32,2.32,0,1,0-2.32-2.32,2.31,2.31,0,0,0,2.32,2.32m-8.07,3.4a2.32,2.32,0,1,1,2.31,2.32,2.32,2.32,0,0,1-2.31-2.32m2.31-3.4a2.32,2.32,0,1,0-2.31-2.32,2.32,2.32,0,0,0,2.31,2.32m-8-2.32a2.32,2.32,0,1,1,2.31,2.32,2.31,2.31,0,0,1-2.31-2.32m2.31-3.4a2.32,2.32,0,1,0-2.31-2.32,2.32,2.32,0,0,0,2.31,2.32m-10,9.12a2.32,2.32,0,1,1,2.31,2.32,2.31,2.31,0,0,1-2.31-2.32m2.31-9.12a2.32,2.32,0,1,0-2.31-2.32,2.32,2.32,0,0,0,2.31,2.32M1.59,34.3a2.32,2.32,0,1,1,2.32,2.32A2.32,2.32,0,0,1,1.59,34.3m2.32-3.4a2.32,2.32,0,1,0-2.32-2.32A2.31,2.31,0,0,0,3.91,30.9m-2.32-8a2.32,2.32,0,1,1,2.32,2.32,2.32,2.32,0,0,1-2.32-2.32M0,38.54H38.54V0H0Z"/><rect class="cls-4" width="353.51" height="61.69"/></svg>